# xmcd
#
# Track frame offsets:
#	150
#	16802
#	27882
#	41407
#	58805
#	72990
#	90271
#	106114
#	126661
#	147938
#	167213
#	180771
#
# Disc length: 2639 seconds
#
# Revision: 0
# Processed by: cddbd v1.5.2PL0 Copyright (c) Steve Scherf et al.
# Submitted via: audiograbber 1.83.01
#
DISCID=970a4d0c
DTITLE=Alan Jackson - Songs Of Love And Heartache
DYEAR=2009
DGENRE=Country
TTITLE0=Here In The Real World
TTITLE1=She's Got The Rhythm (And I Got The Blues)
TTITLE2=Tropical Depression
TTITLE3=Livin' On Love
TTITLE4=You Can't Give Up On Love
TTITLE5=Gone Crazy
TTITLE6=When Somebody Loves You
TTITLE7=Remember When
TTITLE8=Rainy Day In June
TTITLE9=A Woman's Love
TTITLE10=That's What I'd Be Like Without You (Previously Unreleased)
TTITLE11=Nothing Sure Looked Good On You (Previously Unreleased)
EXTD=
EXTT0=
EXTT1=
EXTT2=
EXTT3=
EXTT4=
EXTT5=
EXTT6=
EXTT7=
EXTT8=
EXTT9=
EXTT10=
EXTT11=
PLAYORDER=
